<svg version="1.1" xmlns="http://www.w3.org/2000/svg" xmlns:xlink="http://www.w3.org/1999/xlink" width="48" height="48"><defs><linearGradient x1="16.55612" y1="14.2299" x2="52.65711" y2="54.98331" gradientUnits="userSpaceOnUse" id="color-1"><stop offset="0" stop-color="#000000" stop-opacity="0.3"></stop><stop offset="1" stop-color="#000000" stop-opacity="0"></stop></linearGradient><filter id="dropshadow-base"><feColorMatrix type="matrix" values="0 0 0 0 0  0 0 0 0 0  0 0 0 0 0  0 0 0 .8 0"></feColorMatrix> <feOffset dx="0" dy="1"></feOffset> <feGaussianBlur stdDeviation="1"></feGaussianBlur> <feComposite in="SourceGraphic"></feComposite></filter><filter id="dropshadow-banner" x="-10%" y="-10%" width="120%" height="130%"><feColorMatrix type="matrix" values="0 0 0 0 0  0 0 0 0 0  0 0 0 0 0  0 0 0 .4 0"></feColorMatrix> <feOffset dx="0" dy="1"></feOffset> <feGaussianBlur stdDeviation="0.5"></feGaussianBlur> <feComposite in="SourceGraphic"></feComposite></filter></defs><g fill="none" fill-rule="nonzero" stroke="none" stroke-width="none" stroke-linecap="butt" stroke-linejoin="miter" stroke-miterlimit="10" stroke-dasharray="" stroke-dashoffset="0" font-family="none" font-weight="none" font-size="none" text-anchor="none" style="mix-blend-mode: normal"><path d="M7,43c-1.10457,0 -2,-0.89543 -2,-2v-34c0,-1.10457 0.89543,-2 2,-2h34c1.10457,0 2,0.89543 2,2v34c0,1.10457 -0.89543,2 -2,2z" id="base 1 5" fill="#512da8" stroke-width="1"></path><path d="M17.10104,33.22519c-0.33672,-0.33672 -0.54492,-0.80196 -0.54492,-1.31606v-9.30487c0,-1.02819 0.83278,-1.86097 1.86097,-1.86097h0.93049v-1.86097c0,-2.56814 2.08429,-4.65243 4.65243,-4.65243c1.28407,0 2.44718,0.52107 3.28927,1.36316l15.71072,15.71072v9.69622c0,1.10457 -0.89543,2 -2,2h-14.12415z" fill="url(#color-1)" stroke-width="1"></path><path d="M29.58292,20.7433h-0.93049v-1.86097c0,-2.56814 -2.08429,-4.65243 -4.65243,-4.65243c-2.56814,0 -4.65243,2.08429 -4.65243,4.65243v1.86097h-0.93049c-1.02819,0 -1.86097,0.83279 -1.86097,1.86097v9.30487c0,1.02819 0.83279,1.86097 1.86097,1.86097h11.16584c1.02819,0 1.86097,-0.83279 1.86097,-1.86097v-9.30487c0,-1.02819 -0.83279,-1.86097 -1.86097,-1.86097zM24,29.11768c-1.02819,0 -1.86097,-0.83279 -1.86097,-1.86097c0,-1.02819 0.83279,-1.86097 1.86097,-1.86097c1.02819,0 1.86097,0.83279 1.86097,1.86097c0,1.02819 -0.83279,1.86097 -1.86097,1.86097zM26.88451,20.7433h-5.76902v-1.86097c0,-1.59113 1.29338,-2.88451 2.88451,-2.88451c1.59113,0 2.88451,1.29338 2.88451,2.88451z" fill="none" stroke-width="0"></path><path d="M31.44389,22.60427v9.30487c0,1.02819 -0.83279,1.86097 -1.86097,1.86097h-11.16584c-1.02819,0 -1.86097,-0.83279 -1.86097,-1.86097v-9.30487c0,-1.02819 0.83279,-1.86097 1.86097,-1.86097h0.93049v-1.86097c0,-2.56814 2.08429,-4.65243 4.65243,-4.65243c2.56814,0 4.65243,2.08429 4.65243,4.65243v1.86097h0.93049c1.02819,0 1.86097,0.83279 1.86097,1.86097zM25.86097,27.2567c0,-1.02819 -0.83279,-1.86097 -1.86097,-1.86097c-1.02819,0 -1.86097,0.83279 -1.86097,1.86097c0,1.02819 0.83279,1.86097 1.86097,1.86097c1.02819,0 1.86097,-0.83279 1.86097,-1.86097zM26.88451,18.88232c0,-1.59113 -1.29338,-2.88451 -2.88451,-2.88451c-1.59113,0 -2.88451,1.29338 -2.88451,2.88451v1.86097h5.76902z" fill="#ffffff" stroke-width="0"></path><path d="M2,24c0,-12.15026 9.84974,-22 22,-22c12.15026,0 22,9.84974 22,22c0,12.15026 -9.84974,22 -22,22c-12.15026,0 -22,-9.84974 -22,-22z" id="base 1 1 1" fill="none" stroke-width="1"></path><g fill="#000000" stroke-width="1" font-family="Roboto, sans-serif" font-weight="400" font-size="14" text-anchor="start"></g><rect x="2" y="2" width="44" height="22" fill="none" stroke-width="1"></rect><path d="M2,24v-22h44v22z" fill="none" stroke-width="1"></path><path d="M2,24v-22h44v22z" fill="none" stroke-width="1"></path><path d="M2,24v-22h44v22z" fill="none" stroke-width="1"></path><path d="M2,24v-22h44v22z" fill="none" stroke-width="1"></path></g></svg>